<svg width="29" height="28" viewBox="0 0 29 28" fill="none" xmlns="http://www.w3.org/2000/svg">
<g id="Frame">
<g id="Group">
<path id="Vector" d="M20.9846 21.6289C20.6617 21.6289 20.3544 21.4267 20.22 21.1262L20.1781 21.0325C20.151 20.9515 20.1371 20.8666 20.137 20.7812V14.5899C20.1666 14.5908 20.2272 14.5908 20.2272 14.5908C20.6379 14.5908 21.0279 14.5306 21.4042 14.4725C21.5509 14.4496 21.6937 14.428 21.8319 14.4106V20.7812C21.8323 21.2406 21.444 21.6289 20.9846 21.6289Z" fill="#8AD6FF"/>
<path id="Vector_2" d="M6.87112 21.6288C6.41084 21.6288 6.19087 21.2724 6.1345 21.163C6.07813 21.0533 5.91411 20.6676 6.18028 20.2929L7.88534 17.8835C8.23354 17.79 8.59287 17.7445 8.95338 17.7483C9.85783 17.7483 10.8254 17.9911 11.7617 18.2263L12.3296 18.3675C13.1849 18.5773 14.1542 18.815 15.1315 18.815C15.9173 18.815 16.5971 18.6646 17.207 18.3543L18.4408 20.0958V20.7812C18.4408 20.9778 18.4637 21.1719 18.5094 21.3614C18.353 21.5309 18.1322 21.6288 17.8906 21.6288H6.87112Z" fill="#8AD6FF"/>
<path id="Vector_3" d="M17.8907 22.9003H6.87115C6.75875 22.9003 6.65094 22.8556 6.57146 22.7761C6.49198 22.6967 6.44732 22.5889 6.44732 22.4765C6.44732 22.364 6.49198 22.2562 6.57146 22.1768C6.65094 22.0973 6.75875 22.0526 6.87115 22.0526H17.8907C18.0031 22.0526 18.1109 22.0973 18.1904 22.1768C18.2699 22.2562 18.3145 22.364 18.3145 22.4765C18.3145 22.5889 18.2699 22.6967 18.1904 22.7761C18.1109 22.8556 18.0031 22.9003 17.8907 22.9003ZM19.2741 20.2247C19.2062 20.2248 19.1393 20.2087 19.0791 20.1775C19.0188 20.1464 18.9669 20.1012 18.9278 20.0458L13.7304 12.7153C13.6654 12.6235 13.6394 12.5097 13.6583 12.3989C13.6772 12.2881 13.7393 12.1893 13.831 12.1242C13.9228 12.0592 14.0366 12.0333 14.1474 12.0522C14.2582 12.071 14.357 12.1332 14.4221 12.2249L19.6195 19.5554C19.6645 19.6188 19.6912 19.6934 19.6967 19.771C19.7022 19.8485 19.6862 19.9261 19.6505 19.9952C19.6149 20.0643 19.5609 20.1223 19.4945 20.1627C19.4281 20.2032 19.3518 20.2246 19.2741 20.2247ZM5.48778 20.2247C5.41001 20.2246 5.33376 20.2032 5.26735 20.1627C5.20095 20.1223 5.14696 20.0643 5.1113 19.9952C5.07563 19.9261 5.05966 19.8485 5.06514 19.771C5.07062 19.6934 5.09733 19.6188 5.14236 19.5554L10.3398 12.2249C10.372 12.1795 10.4128 12.1409 10.4599 12.1112C10.507 12.0816 10.5595 12.0615 10.6144 12.0522C10.6693 12.0428 10.7255 12.0444 10.7798 12.0567C10.8341 12.0691 10.8854 12.092 10.9308 12.1242C10.9762 12.1564 11.0148 12.1973 11.0445 12.2444C11.0741 12.2915 11.0942 12.344 11.1035 12.3989C11.1129 12.4538 11.1113 12.51 11.0989 12.5643C11.0866 12.6185 11.0636 12.6698 11.0314 12.7153L5.83404 20.0458C5.79482 20.1011 5.74291 20.1462 5.68266 20.1773C5.62242 20.2085 5.55559 20.2247 5.48778 20.2247Z" fill="#0D60D8"/>
<path id="Vector_4" d="M6.87112 22.9004C6.08661 22.9004 5.37119 22.4583 5.00373 21.7467C4.63585 21.0347 4.68883 20.1951 5.14275 19.5555C5.17451 19.5091 5.21521 19.4694 5.26246 19.4389C5.30971 19.4083 5.36258 19.3875 5.41797 19.3776C5.47337 19.3676 5.53018 19.3689 5.5851 19.3811C5.64001 19.3934 5.69193 19.4165 5.73783 19.4491C5.78373 19.4816 5.82268 19.523 5.85242 19.5708C5.88216 19.6186 5.90209 19.6718 5.91104 19.7273C5.91999 19.7829 5.91779 19.8397 5.90457 19.8944C5.89134 19.9491 5.86736 20.0006 5.83401 20.0459C5.56064 20.4316 5.53182 20.922 5.75688 21.3581C5.98151 21.7929 6.39813 22.0527 6.87112 22.0527C6.98353 22.0527 7.09133 22.0974 7.17081 22.1769C7.2503 22.2564 7.29495 22.3642 7.29495 22.4766C7.29495 22.589 7.2503 22.6968 7.17081 22.7763C7.09133 22.8557 6.98353 22.9004 6.87112 22.9004ZM15.1315 18.3904C14.1953 18.3904 13.2523 18.159 12.4275 17.9569L11.8655 17.817C10.3953 17.4478 8.87413 17.0655 7.50262 17.5619C7.39691 17.6001 7.28031 17.5948 7.1785 17.5471C7.07668 17.4995 6.99797 17.4133 6.9597 17.3076C6.92143 17.2018 6.92672 17.0852 6.97441 16.9834C7.0221 16.8816 7.10828 16.8029 7.214 16.7646C8.82963 16.1802 10.5521 16.6125 12.0719 16.9948L12.6297 17.1334C13.9694 17.4618 15.488 17.8348 16.6832 17.1944C16.8455 17.1079 17.0049 16.9994 17.157 16.8727C17.1995 16.8355 17.2491 16.8072 17.3027 16.7894C17.3564 16.7716 17.413 16.7647 17.4694 16.7692C17.5257 16.7736 17.5806 16.7893 17.6308 16.8152C17.681 16.8412 17.7255 16.877 17.7617 16.9204C17.7978 16.9638 17.825 17.014 17.8415 17.0681C17.8579 17.1221 17.8635 17.1789 17.8577 17.2351C17.8519 17.2913 17.8349 17.3458 17.8077 17.3954C17.7806 17.445 17.7438 17.4886 17.6995 17.5237C17.5087 17.6836 17.3021 17.8236 17.0828 17.9416C16.4662 18.2726 15.8003 18.3904 15.1315 18.3904ZM14.0762 12.8942C13.9638 12.8942 13.856 12.8496 13.7765 12.7701C13.697 12.6906 13.6524 12.5828 13.6524 12.4704V7.21875C13.6524 7.10634 13.697 6.99854 13.7765 6.91906C13.856 6.83958 13.9638 6.79492 14.0762 6.79492C14.1886 6.79492 14.2964 6.83958 14.3759 6.91906C14.4554 6.99854 14.5 7.10634 14.5 7.21875V12.4704C14.5 12.5828 14.4554 12.6906 14.3759 12.7701C14.2964 12.8496 14.1886 12.8942 14.0762 12.8942ZM10.6856 12.8942C10.5732 12.8942 10.4654 12.8496 10.3859 12.7701C10.3064 12.6906 10.2617 12.5828 10.2617 12.4704V7.21875C10.2617 7.10634 10.3064 6.99854 10.3859 6.91906C10.4654 6.83958 10.5732 6.79492 10.6856 6.79492C10.798 6.79492 10.9058 6.83958 10.9853 6.91906C11.0647 6.99854 11.1094 7.10634 11.1094 7.21875V12.4704C11.1094 12.5828 11.0647 12.6906 10.9853 12.7701C10.9058 12.8496 10.798 12.8942 10.6856 12.8942ZM15.221 5.94727H9.54081C9.42841 5.94727 9.32061 5.90261 9.24112 5.82313C9.16164 5.74365 9.11699 5.63584 9.11699 5.52344C9.11699 5.41103 9.16164 5.30323 9.24112 5.22375C9.32061 5.14426 9.42841 5.09961 9.54081 5.09961H15.2205C15.2762 5.09958 15.3313 5.11052 15.3827 5.13179C15.4342 5.15306 15.4809 5.18426 15.5203 5.2236C15.5597 5.26293 15.5909 5.30964 15.6122 5.36105C15.6336 5.41246 15.6445 5.46757 15.6446 5.52323C15.6446 5.57888 15.6337 5.634 15.6124 5.68543C15.5911 5.73687 15.5599 5.7836 15.5206 5.82298C15.4813 5.86235 15.4345 5.8936 15.3831 5.91492C15.3317 5.93625 15.2766 5.94724 15.221 5.94727Z" fill="#0D60D8"/>
<path id="Vector_5" d="M10.6861 7.64253C10.6167 7.64263 10.5483 7.62568 10.487 7.59316C10.4256 7.56065 10.3732 7.51356 10.3343 7.45604L9.18956 5.76073C9.15686 5.71467 9.1337 5.66253 9.12143 5.60738C9.10917 5.55224 9.10806 5.4952 9.11816 5.43962C9.12825 5.38403 9.14936 5.33103 9.18024 5.28372C9.21112 5.23642 9.25114 5.19576 9.29796 5.16414C9.34478 5.13253 9.39744 5.11059 9.45286 5.09962C9.50828 5.08865 9.56533 5.08887 9.62066 5.10027C9.67599 5.11166 9.72848 5.13401 9.77505 5.16598C9.82163 5.19796 9.86134 5.23892 9.89185 5.28647L11.0366 6.98178C11.0792 7.04554 11.1038 7.11966 11.1077 7.19627C11.1116 7.27288 11.0947 7.34911 11.0588 7.41687C11.0228 7.48463 10.9692 7.54139 10.9036 7.58113C10.838 7.62086 10.7628 7.64208 10.6861 7.64253ZM14.0759 7.64253C13.999 7.64249 13.9235 7.62152 13.8576 7.58186C13.7917 7.5422 13.7378 7.48535 13.7017 7.4174C13.6657 7.34945 13.6488 7.27297 13.6529 7.19616C13.657 7.11934 13.6819 7.04509 13.7249 6.98136L14.8697 5.28604C14.9338 5.19579 15.0306 5.13418 15.1395 5.11439C15.2484 5.09461 15.3608 5.11821 15.4525 5.18016C15.5442 5.2421 15.6081 5.33748 15.6304 5.44589C15.6527 5.55431 15.6318 5.66715 15.572 5.76031L14.4272 7.45562C14.3886 7.51329 14.3363 7.56052 14.275 7.59313C14.2137 7.62573 14.1453 7.6427 14.0759 7.64253ZM22.6792 9.33784C22.6022 9.3378 22.5268 9.31683 22.4609 9.27717C22.395 9.23751 22.3411 9.18066 22.305 9.11271C22.2689 9.04477 22.2521 8.96829 22.2561 8.89147C22.2602 8.81465 22.2852 8.7404 22.3282 8.67667L23.473 6.98136C23.5371 6.8911 23.6339 6.82949 23.7428 6.80971C23.8517 6.78992 23.9641 6.81352 24.0558 6.87547C24.1475 6.93742 24.2114 7.03279 24.2337 7.1412C24.256 7.24962 24.2351 7.36246 24.1753 7.45562L23.0305 9.15093C22.9919 9.20865 22.9396 9.25593 22.8783 9.28854C22.817 9.32115 22.7486 9.33809 22.6792 9.33784ZM19.2894 9.33784C19.22 9.33795 19.1516 9.32099 19.0902 9.28848C19.0289 9.25596 18.9765 9.20887 18.9376 9.15136L17.7929 7.45604C17.7601 7.40998 17.737 7.35784 17.7247 7.3027C17.7125 7.24755 17.7113 7.19051 17.7214 7.13493C17.7315 7.07935 17.7527 7.02634 17.7835 6.97904C17.8144 6.93173 17.8544 6.89107 17.9012 6.85946C17.9481 6.82784 18.0007 6.8059 18.0561 6.79493C18.1116 6.78396 18.1686 6.78418 18.2239 6.79558C18.2793 6.80698 18.3318 6.82932 18.3783 6.8613C18.4249 6.89327 18.4646 6.93424 18.4951 6.98178L19.6399 8.67709C19.6825 8.74085 19.7071 8.81497 19.711 8.89158C19.7149 8.96819 19.698 9.04442 19.662 9.11218C19.6261 9.17994 19.5725 9.23671 19.5069 9.27644C19.4412 9.31617 19.3661 9.33739 19.2894 9.33784Z" fill="#0D60D8"/>
<path id="Vector_6" d="M23.8243 7.64258H18.1445C18.0321 7.64258 17.9243 7.59793 17.8448 7.51844C17.7654 7.43896 17.7207 7.33116 17.7207 7.21875C17.7207 7.10634 17.7654 6.99854 17.8448 6.91906C17.9243 6.83958 18.0321 6.79492 18.1445 6.79492H23.8243C23.9367 6.79492 24.0445 6.83958 24.1239 6.91906C24.2034 6.99854 24.2481 7.10634 24.2481 7.21875C24.2481 7.33116 24.2034 7.43896 24.1239 7.51844C24.0445 7.59793 23.9367 7.64258 23.8243 7.64258ZM20.9842 22.9004C19.8356 22.9004 18.865 21.9298 18.865 20.7812C18.865 20.6688 18.9097 20.561 18.9892 20.4816C19.0687 20.4021 19.1765 20.3574 19.2889 20.3574C19.4013 20.3574 19.5091 20.4021 19.5886 20.4816C19.668 20.561 19.7127 20.6688 19.7127 20.7812C19.7127 21.4704 20.295 22.0527 20.9842 22.0527C21.6733 22.0527 22.2557 21.4704 22.2557 20.7812C22.2557 20.6688 22.3003 20.561 22.3798 20.4816C22.4593 20.4021 22.5671 20.3574 22.6795 20.3574C22.7919 20.3574 22.8997 20.4021 22.9792 20.4816C23.0587 20.561 23.1033 20.6688 23.1033 20.7812C23.1033 21.9298 22.1332 22.9004 20.9842 22.9004Z" fill="#0D60D8"/>
<path id="Vector_7" d="M22.6796 21.2051C22.5672 21.2051 22.4594 21.1604 22.3799 21.0809C22.3004 21.0015 22.2557 20.8937 22.2557 20.7812V8.91406C22.2557 8.80166 22.3004 8.69385 22.3799 8.61437C22.4594 8.53489 22.5672 8.49023 22.6796 8.49023C22.792 8.49023 22.8998 8.53489 22.9793 8.61437C23.0587 8.69385 23.1034 8.80166 23.1034 8.91406V20.7812C23.1034 20.8937 23.0587 21.0015 22.9793 21.0809C22.8998 21.1604 22.792 21.2051 22.6796 21.2051ZM19.2889 21.2051C19.1765 21.2051 19.0687 21.1604 18.9892 21.0809C18.9098 21.0015 18.8651 20.8937 18.8651 20.7812V8.91406C18.8651 8.80166 18.9098 8.69385 18.9892 8.61437C19.0687 8.53489 19.1765 8.49023 19.2889 8.49023C19.4013 8.49023 19.5091 8.53489 19.5886 8.61437C19.6681 8.69385 19.7128 8.80166 19.7128 8.91406V20.7812C19.7128 20.8937 19.6681 21.0015 19.5886 21.0809C19.5091 21.1604 19.4013 21.2051 19.2889 21.2051Z" fill="#0D60D8"/>
<path id="Vector_8" d="M17.8906 22.9003C17.7782 22.9003 17.6704 22.8557 17.5909 22.7762C17.5114 22.6967 17.4668 22.5889 17.4668 22.4765C17.4668 22.3641 17.5114 22.2563 17.5909 22.1768C17.6704 22.0973 17.7782 22.0527 17.8906 22.0527C18.3907 22.0527 18.8459 21.7581 19.0506 21.3016C19.0972 21.2 19.182 21.1208 19.2867 21.0814C19.3913 21.042 19.5073 21.0455 19.6094 21.0913C19.7114 21.137 19.7912 21.2212 19.8315 21.3256C19.8717 21.4299 19.8691 21.5459 19.8241 21.6483C19.6567 22.0211 19.3852 22.3376 19.0422 22.5597C18.6991 22.7818 18.2993 22.9001 17.8906 22.9003ZM19.274 20.2395C19.2084 20.2397 19.1438 20.2238 19.0857 20.1933C19.0277 20.1628 18.9779 20.1186 18.9409 20.0645L19.2888 19.8229L18.9341 20.0552L19.622 19.5593C19.7555 19.7513 19.7156 20.0268 19.5232 20.1603C19.45 20.2111 19.3631 20.2387 19.274 20.2395ZM20.2204 14.1682C19.8559 14.1682 19.488 14.1144 19.1193 13.9529C19.0683 13.9306 19.0222 13.8986 18.9836 13.8585C18.945 13.8184 18.9147 13.7711 18.8944 13.7193C18.8742 13.6675 18.8643 13.6122 18.8654 13.5565C18.8666 13.5009 18.8787 13.4461 18.901 13.3951C18.9232 13.344 18.9553 13.2978 18.9954 13.2592C19.0355 13.2205 19.0828 13.1901 19.1347 13.1698C19.1866 13.1495 19.2419 13.1396 19.2976 13.1407C19.3533 13.1419 19.4082 13.154 19.4592 13.1764C19.9826 13.4049 20.5773 13.3129 21.2062 13.2167C21.7004 13.14 22.2116 13.062 22.7337 13.1277C22.7889 13.1347 22.8422 13.1526 22.8905 13.1803C22.9388 13.2079 22.9812 13.2448 23.0153 13.2889C23.0493 13.3329 23.0743 13.3832 23.0889 13.4369C23.1035 13.4907 23.1074 13.5467 23.1003 13.6019C23.0707 13.8342 22.8562 13.9944 22.6265 13.9686C22.223 13.9164 21.792 13.9834 21.3355 14.0542C20.9689 14.111 20.5963 14.1682 20.2204 14.1682Z" fill="#0D60D8"/>
</g>
</g>
</svg>
