<svg width="27" height="28" viewBox="0 0 27 28" fill="none" xmlns="http://www.w3.org/2000/svg">
<g id="Frame">
<g id="Group">
<path id="Vector" d="M14.2417 6.69272C14.514 6.50018 14.8062 6.33746 15.1132 6.20737C15.6743 5.9689 16.2776 5.84589 16.8873 5.8457C19.4769 5.8457 21.6641 8.00224 21.6641 10.5547C21.6641 11.514 21.3559 12.4623 20.8015 13.2521L14.2417 6.69272Z" fill="#8AD6FF"/>
<path id="Vector_2" d="M17.3984 22.1479C16.4979 22.1479 15.6607 21.8066 15.041 21.187L11.2545 17.4005L13.0735 15.5815C14.1949 16.4336 15.5642 16.8955 16.9726 16.8968C17.8819 16.8986 18.7806 16.7023 19.6064 16.3216L19.7562 16.4714C21.0342 17.7495 21.0342 19.9089 19.7562 21.187C19.1365 21.8066 18.2993 22.1479 17.3984 22.1479Z" fill="#8AD6FF"/>
<path id="Vector_3" d="M20.8595 14.8743C20.8059 14.8744 20.7528 14.8639 20.7032 14.8433C20.6537 14.8228 20.6087 14.7927 20.5709 14.7547L12.7452 6.92867C12.7073 6.89078 12.6773 6.84578 12.6567 6.79626C12.6362 6.74675 12.6257 6.69367 12.6257 6.64008C12.6257 6.58648 12.6362 6.5334 12.6567 6.48389C12.6773 6.43437 12.7073 6.38937 12.7452 6.35148C12.7831 6.31358 12.8281 6.28351 12.8776 6.263C12.9271 6.24249 12.9802 6.23193 13.0338 6.23193C13.0874 6.23193 13.1405 6.24249 13.19 6.263C13.2395 6.28351 13.2845 6.31358 13.3224 6.35148L21.1481 14.1771C21.2055 14.2341 21.2447 14.3069 21.2606 14.3862C21.2765 14.4655 21.2685 14.5478 21.2376 14.6225C21.2066 14.6973 21.1542 14.7611 21.0868 14.806C21.0195 14.8508 20.9404 14.8746 20.8595 14.8743ZM20.3329 16.3039C20.2793 16.3039 20.2262 16.2934 20.1767 16.2729C20.1271 16.2523 20.0822 16.2222 20.0443 16.1843L19.4687 15.6083C19.4308 15.5704 19.4008 15.5254 19.3803 15.4759C19.3597 15.4264 19.3492 15.3733 19.3492 15.3197C19.3492 15.2661 19.3597 15.213 19.3803 15.1635C19.4008 15.114 19.4308 15.069 19.4687 15.0311C19.5066 14.9932 19.5516 14.9631 19.6011 14.9426C19.6507 14.9221 19.7037 14.9116 19.7573 14.9116C19.8109 14.9116 19.864 14.9221 19.9135 14.9426C19.963 14.9631 20.008 14.9932 20.0459 15.0311L20.6215 15.6071C20.6788 15.6641 20.7178 15.7368 20.7337 15.8161C20.7495 15.8953 20.7415 15.9775 20.7106 16.0521C20.6796 16.1268 20.6272 16.1906 20.56 16.2354C20.4927 16.2802 20.4137 16.3041 20.3329 16.3039ZM12.1803 8.15083C12.1267 8.15089 12.0736 8.14035 12.024 8.11983C11.9745 8.0993 11.9295 8.06919 11.8917 8.03123L11.3157 7.45526C11.2778 7.41736 11.2477 7.37236 11.2272 7.32285C11.2067 7.27333 11.1962 7.22026 11.1962 7.16666C11.1962 7.11306 11.2067 7.05999 11.2272 7.01047C11.2477 6.96095 11.2778 6.91596 11.3157 6.87806C11.3536 6.84016 11.3986 6.81009 11.4481 6.78958C11.4976 6.76907 11.5507 6.75852 11.6043 6.75852C11.6579 6.75852 11.711 6.76907 11.7605 6.78958C11.81 6.81009 11.855 6.84016 11.8929 6.87806L12.4689 7.45403C12.5261 7.51104 12.5652 7.58378 12.581 7.66302C12.5969 7.74226 12.5888 7.82443 12.5579 7.89909C12.527 7.97374 12.4746 8.03753 12.4074 8.08236C12.3401 8.12718 12.2611 8.15101 12.1803 8.15083ZM10.0992 17.8089C10.0184 17.8091 9.9394 17.7853 9.87216 17.7404C9.80492 17.6956 9.75251 17.6318 9.72159 17.5572C9.69067 17.4825 9.68262 17.4003 9.69848 17.3211C9.71434 17.2419 9.75338 17.1691 9.81065 17.1121L12.7452 14.1775C12.7831 14.1396 12.8281 14.1096 12.8776 14.0891C12.9271 14.0686 12.9802 14.058 13.0338 14.058C13.0874 14.058 13.1405 14.0686 13.19 14.0891C13.2395 14.1096 13.2845 14.1396 13.3224 14.1775C13.3603 14.2154 13.3904 14.2604 13.4109 14.31C13.4314 14.3595 13.442 14.4125 13.442 14.4661C13.442 14.5197 13.4314 14.5728 13.4109 14.6223C13.3904 14.6719 13.3603 14.7168 13.3224 14.7547L10.3878 17.6893C10.35 17.7273 10.305 17.7574 10.2555 17.7779C10.206 17.7984 10.1529 17.809 10.0992 17.8089Z" fill="#0D60D8"/>
<path id="Vector_4" d="M16.971 16.4884C15.3875 16.4884 13.8474 15.8565 12.7452 14.7543C11.3676 13.3767 10.7732 11.3834 11.1553 9.4228C11.5382 7.46138 12.8383 5.83714 14.6336 5.07788C15.3459 4.77482 16.112 4.61863 16.8861 4.61865C20.1402 4.61947 22.8887 7.33688 22.8887 10.5531C22.8887 12.9093 21.4306 15.1095 19.2598 16.0275C18.5356 16.3336 17.7571 16.4903 16.971 16.4884ZM16.8865 5.43588C16.2218 5.43585 15.564 5.56997 14.9524 5.8302C13.4073 6.48373 12.2876 7.88509 11.9574 9.57955C11.6268 11.2728 12.1374 12.9917 13.3228 14.1771C14.2727 15.127 15.6027 15.672 16.9714 15.672C17.6576 15.672 18.3209 15.5385 18.9422 15.2756C20.8142 14.4837 22.0723 12.586 22.0723 10.5531C22.0723 7.77937 19.6978 5.43588 16.8865 5.43588ZM14.4638 22.173C14.4102 22.1731 14.3571 22.1625 14.3075 22.142C14.258 22.1215 14.213 22.0914 14.1752 22.0534L5.44657 13.3248C5.40867 13.2869 5.37861 13.2419 5.35809 13.1924C5.33758 13.1429 5.32703 13.0898 5.32703 13.0362C5.32703 12.9826 5.33758 12.9295 5.35809 12.88C5.37861 12.8305 5.40867 12.7855 5.44657 12.7476C5.48447 12.7097 5.52946 12.6796 5.57898 12.6591C5.6285 12.6386 5.68157 12.6281 5.73517 12.6281C5.78877 12.6281 5.84184 12.6386 5.89136 12.6591C5.94087 12.6796 5.98587 12.7097 6.02377 12.7476L14.7524 21.4762C14.8096 21.5332 14.8487 21.606 14.8645 21.6852C14.8804 21.7645 14.8724 21.8466 14.8414 21.9213C14.8105 21.9959 14.7581 22.0597 14.6909 22.1045C14.6236 22.1494 14.5446 22.1732 14.4638 22.173Z" fill="#0D60D8"/>
<path id="Vector_5" d="M17.3988 23.3723C16.1705 23.3723 15.0259 22.9041 14.1756 22.0534C14.1377 22.0155 14.1076 21.9705 14.0871 21.921C14.0666 21.8715 14.0561 21.8184 14.0561 21.7648C14.0561 21.7112 14.0666 21.6582 14.0871 21.6086C14.1076 21.5591 14.1377 21.5141 14.1756 21.4762C14.2135 21.4383 14.2585 21.4083 14.308 21.3878C14.3575 21.3672 14.4106 21.3567 14.4642 21.3567C14.5178 21.3567 14.5709 21.3672 14.6204 21.3878C14.6699 21.4083 14.7149 21.4383 14.7528 21.4762C15.4492 22.1726 16.3889 22.5563 17.3984 22.5563C18.4087 22.5563 19.3479 22.173 20.0443 21.4762C20.7407 20.7794 21.1244 19.8401 21.1244 18.8303C21.1244 17.8204 20.7411 16.8807 20.0443 16.1843C20.0064 16.1464 19.9764 16.1014 19.9559 16.0519C19.9354 16.0024 19.9248 15.9493 19.9248 15.8957C19.9248 15.8421 19.9354 15.789 19.9559 15.7395C19.9764 15.69 20.0064 15.645 20.0443 15.6071C20.0822 15.5692 20.1272 15.5391 20.1768 15.5186C20.2263 15.4981 20.2793 15.4875 20.3329 15.4875C20.3865 15.4875 20.4396 15.4981 20.4891 15.5186C20.5386 15.5391 20.5836 15.5692 20.6215 15.6071C21.4722 16.4574 21.9404 17.6024 21.9404 18.8303C21.9404 20.0581 21.4722 21.2031 20.6215 22.0534C19.7708 22.9041 18.6267 23.3723 17.3988 23.3723ZM5.73519 13.4444C5.68158 13.4445 5.62848 13.4339 5.57896 13.4134C5.52943 13.3929 5.48445 13.3628 5.44659 13.3248C4.59589 12.4745 4.12769 11.3295 4.12769 10.1016C4.12769 8.87377 4.59589 7.72876 5.44659 6.87847C6.29688 6.02778 7.44189 5.55957 8.66976 5.55957C9.89764 5.55957 11.0426 6.02778 11.8929 6.87847C11.9308 6.91637 11.9609 6.96137 11.9814 7.01089C12.0019 7.0604 12.0125 7.11348 12.0125 7.16707C12.0125 7.22067 12.0019 7.27374 11.9814 7.32326C11.9609 7.37278 11.9308 7.41777 11.8929 7.45567C11.855 7.49357 11.81 7.52364 11.7605 7.54415C11.711 7.56466 11.6579 7.57522 11.6043 7.57522C11.5507 7.57522 11.4977 7.56466 11.4481 7.54415C11.3986 7.52364 11.3536 7.49357 11.3157 7.45567C10.6193 6.75928 9.67966 6.37557 8.66976 6.37557C7.65987 6.37557 6.72018 6.75887 6.02379 7.45567C5.32739 8.15248 4.94368 9.09175 4.94368 10.1016C4.94368 11.1115 5.32699 12.0512 6.02379 12.7476C6.08106 12.8046 6.1201 12.8774 6.13596 12.9566C6.15181 13.0358 6.14377 13.118 6.11285 13.1927C6.08193 13.2673 6.02952 13.3311 5.96228 13.3759C5.89504 13.4208 5.816 13.4446 5.73519 13.4444Z" fill="#0D60D8"/>
<path id="Vector_6" d="M6.88954 12.2901C6.83592 12.2901 6.78283 12.2796 6.7333 12.2591C6.68378 12.2385 6.63879 12.2084 6.60094 12.1705C6.19498 11.7652 5.91728 11.2495 5.80244 10.6875C5.68761 10.1255 5.74072 9.54216 5.95516 9.01016C5.97515 8.96041 6.00475 8.91509 6.04226 8.87678C6.07977 8.83847 6.12446 8.80793 6.17378 8.78689C6.22309 8.76585 6.27606 8.75474 6.32968 8.75417C6.38329 8.75361 6.43649 8.76361 6.48623 8.78361C6.53598 8.8036 6.5813 8.8332 6.61961 8.87071C6.65791 8.90822 6.68846 8.95291 6.7095 9.00222C6.73053 9.05153 6.74165 9.10451 6.74222 9.15812C6.74278 9.21173 6.73278 9.26493 6.71278 9.31468C6.55825 9.69825 6.51998 10.1188 6.60272 10.524C6.68547 10.9291 6.88558 11.301 7.17814 11.5933C7.23541 11.6503 7.27445 11.723 7.2903 11.8023C7.30616 11.8815 7.29812 11.9637 7.2672 12.0383C7.23627 12.113 7.18387 12.1768 7.11663 12.2216C7.04939 12.2664 6.97035 12.2902 6.88954 12.2901Z" fill="#0D60D8"/>
</g>
</g>
</svg>
