<svg width="23" height="24" viewBox="0 0 23 24" fill="none" xmlns="http://www.w3.org/2000/svg">
<g id="Frame" clip-path="url(#clip0_2235_1259)">
<g id="Group">
<path id="Vector" d="M15.4801 18.1139C15.4217 18.0914 13.526 17.44 13.4137 17.3996C12.3625 17.0357 11.6662 16.052 11.6662 14.9469C13.3822 14.2326 14.5906 12.5391 14.5906 10.567V8.4332C14.5906 8.28047 14.5008 8.1457 14.3615 8.08281C13.7461 7.81328 13.0588 7.15293 12.6141 6.45215C12.5332 6.32637 12.3715 6.28145 12.2412 6.34883C11.2754 6.85645 8.19375 7.93906 5.5209 7.73242C5.29629 7.71445 5.10762 7.88965 5.10762 8.11426V10.5715C5.10762 12.548 6.31602 14.2371 8.03203 14.9514C8.03203 16.052 7.33574 17.0402 6.28457 17.4041C5.73203 17.5973 4.22266 18.1139 4.21816 18.1184C3.71055 18.2936 3.28379 18.617 2.97832 19.0303C1.90469 18.9 1.07812 17.9881 1.07812 16.8875C1.07812 16.052 1.5498 15.3287 2.24609 14.9738C2.35391 14.9154 2.38086 14.7762 2.30449 14.6818C2.04844 14.3764 1.8957 13.9855 1.8957 13.5588C1.8957 12.5705 2.71328 11.7754 3.71055 11.8113C3.81836 11.8158 3.9082 11.726 3.9082 11.6182V5.63008C3.9082 3.00664 6.03301 0.881836 8.65645 0.881836H11.0418C13.6652 0.881836 15.79 3.00664 15.79 5.63008V11.6137C15.79 11.7215 15.8799 11.8113 15.9877 11.8068C16.985 11.7709 17.8025 12.5705 17.8025 13.5543C17.8025 13.9811 17.6498 14.3719 17.3938 14.6773C17.3174 14.7717 17.3398 14.9154 17.4521 14.9693C18.1439 15.3287 18.6201 16.052 18.6201 16.883C18.6201 17.9836 17.798 18.891 16.7334 19.0213L16.7289 19.0258C16.4189 18.617 15.9922 18.2936 15.4801 18.1139Z" fill="#8AD6FF"/>
<g id="Group_2">
<path id="Vector_2" d="M20.4394 13.2758C18.939 12.2875 16.8277 12.7457 15.8888 14.3764C15.489 15.0727 15.3722 15.8543 15.5115 16.5865C14.9185 16.8471 14.4289 17.2873 14.1054 17.8488L12.4119 20.7822C11.9851 21.5189 11.9043 22.3545 12.1154 23.1137H18.09L19.3748 20.89C19.7117 20.3061 19.833 19.6592 19.7656 19.0393C20.4709 18.7922 21.0908 18.3025 21.4951 17.6062C22.3576 16.1103 21.8814 14.2012 20.4394 13.2758ZM12.6185 1.15137C13.0004 1.28613 12.9015 1.84316 12.4972 1.84316H10.0894C7.46598 1.84316 5.34117 3.96797 5.34117 6.59141V7.75937C5.20192 7.81777 5.10309 7.95254 5.10309 8.11426V10.5715C5.10309 11.0926 5.18844 11.5957 5.34117 12.0629V12.5795C5.34117 12.6918 5.25133 12.7771 5.13902 12.7727C4.16871 12.7367 3.32867 13.5184 3.32867 14.5201C3.32867 14.9469 3.48141 15.3377 3.73746 15.6432C3.81383 15.7375 3.79137 15.8812 3.68356 15.9352C2.99176 16.2945 2.51559 17.0178 2.51559 17.8488C2.51559 18.4014 1.85524 18.626 1.53629 18.2217C0.71422 17.1705 1.02867 15.6027 2.24156 14.9783C2.34938 14.9244 2.37633 14.7807 2.29996 14.6863C2.04391 14.3809 1.89117 13.99 1.89117 13.5633C1.89117 12.5615 2.73121 11.7754 3.70152 11.8158C3.81383 11.8203 3.90367 11.735 3.90367 11.6227V5.63008C3.90367 3.00664 6.02848 0.881836 8.65192 0.881836H11.0373C11.5898 0.881836 12.1244 0.976172 12.6185 1.15137Z" fill="#8AD6FF"/>
</g>
<path id="Vector_3" d="M8.40042 14.6996C8.15335 14.8658 7.8344 14.8748 7.57834 14.7355C6.10491 13.9314 5.10315 12.3682 5.10315 10.5713V8.11406C5.10315 7.88945 5.29182 7.71426 5.51643 7.73223C5.72756 7.75019 5.94319 7.75918 6.16331 7.75918C6.37444 7.75918 6.54065 7.92988 6.54065 8.14101V9.60996C6.54065 11.1643 7.28635 12.5434 8.44084 13.4059C8.87659 13.7338 8.85413 14.3986 8.40042 14.6996Z" fill="#8AD6FF"/>
<path id="Vector_4" d="M11.4595 15.8003C10.4488 16.1687 9.2449 16.1687 8.23416 15.8003C8.06345 15.7374 7.96013 15.5622 7.99158 15.378C8.01404 15.2388 8.02751 15.095 8.02751 14.9468C9.13708 15.4274 10.5611 15.4274 11.6707 14.9468C11.6707 15.0905 11.6842 15.2343 11.7066 15.378C11.7336 15.5622 11.6302 15.7374 11.4595 15.8003Z" fill="#8AD6FF"/>
<path id="Vector_5" d="M6.90896 17.9254C7.01228 18.132 6.90447 18.3791 6.68884 18.4555C5.74099 18.7834 5.46248 18.8777 5.45798 18.8822C4.4158 19.2461 3.71501 20.2254 3.71501 21.3305V22.732C3.71501 22.9432 3.54431 23.1139 3.33318 23.1139H2.84802C2.63689 23.1139 2.46619 22.9432 2.46619 22.732V20.5668C2.46619 19.4617 3.16697 18.4779 4.20916 18.1186C4.21365 18.1141 5.71853 17.5975 6.27556 17.4043C6.40134 17.3594 6.52712 17.3055 6.64392 17.2471C6.68435 17.3863 6.76521 17.6334 6.90896 17.9254Z" fill="#8AD6FF"/>
<path id="Vector_6" d="M18.3417 22.6826L18.0901 23.1184H12.1155C11.9044 22.3592 11.9852 21.5191 12.412 20.7869C12.412 20.7869 14.1684 17.7502 14.1999 17.6963C14.7794 19.8525 16.2528 21.6494 18.2608 22.6332L18.3417 22.6826Z" fill="#8AD6FF"/>
<path id="Vector_7" d="M20.4395 13.2756C21.8815 14.201 22.3577 16.1102 21.4907 17.6106C21.0909 18.3069 20.4665 18.7965 19.7612 19.0436C17.8879 19.7039 15.8754 18.536 15.5071 16.5864C15.3678 15.8541 15.4846 15.0725 15.8844 14.3762C16.8278 12.75 18.9391 12.2873 20.4395 13.2756Z" fill="#8AD6FF"/>
<path id="Vector_8" d="M16.7199 17.5255C16.8367 17.9432 16.2887 18.2083 16.0416 17.8534C15.3498 16.8606 15.233 15.5085 15.8889 14.3764C16.7514 12.8805 18.5932 12.3684 20.0711 13.0692C20.2553 13.159 20.1879 13.4421 19.9812 13.4331C17.7846 13.3387 16.1359 15.4096 16.7199 17.5255Z" fill="#8AD6FF"/>
<path id="Vector_9" d="M15.9742 17.7498C15.6239 18.1182 15.5115 18.3967 15.0803 19.1379C15.0039 19.2682 14.8108 19.2637 14.7434 19.1289C14.4604 18.5584 14.2987 18.0508 14.1998 17.6959C14.5323 17.1928 14.9905 16.8154 15.5115 16.5908C15.5205 16.5908 15.5655 17.1209 15.9742 17.7498Z" fill="#8AD6FF"/>
<path id="Vector_10" d="M13.845 21.2627C13.5081 21.8467 13.3868 22.4936 13.4587 23.1135H12.1155C11.9044 22.3543 11.9852 21.5143 12.412 20.782C12.412 20.782 14.1684 17.7453 14.1999 17.6914C14.3032 18.0732 14.4829 18.6258 14.8018 19.2457C14.8602 19.3625 14.8602 19.5018 14.7928 19.6141L13.845 21.2627Z" fill="#8AD6FF"/>
<g id="Group_3">
<path id="Vector_11" d="M8.26562 9.36328V10.0326C8.26562 10.2437 8.43633 10.4145 8.64746 10.4145C8.85859 10.4145 9.0293 10.2437 9.0293 10.0326V9.36328C9.0293 9.15215 8.85859 8.98145 8.64746 8.98145C8.43633 8.98145 8.26562 9.15215 8.26562 9.36328ZM10.66 10.0371C10.66 10.2482 10.8307 10.4189 11.0418 10.4189C11.2529 10.4189 11.4236 10.2482 11.4236 10.0371V9.36777C11.4236 9.15664 11.2529 8.98594 11.0418 8.98594C10.8307 8.98594 10.66 9.15664 10.66 9.36777V10.0371Z" fill="#0D60D8"/>
<path id="Vector_12" d="M12.0391 19.5199C12.2008 19.3807 12.2143 19.1381 12.0795 18.9809C11.9402 18.8191 11.6977 18.8057 11.5404 18.9404C11.0777 19.3402 10.5072 19.6322 9.84688 19.758C8.57109 19.5109 7.57383 18.6484 7.10664 17.4176C7.38516 17.2289 7.62773 16.9953 7.82988 16.7213C7.95566 16.5506 7.91973 16.3125 7.74902 16.1867C7.57832 16.0609 7.34023 16.0969 7.21445 16.2676C7.0168 16.5371 6.76074 16.7572 6.46875 16.91C6.24863 17.0223 6.42832 16.9504 4.08789 17.759C3.58477 17.9342 3.15352 18.2352 2.8166 18.617C2.03047 18.4283 1.45996 17.7186 1.45996 16.892C1.45996 16.1553 1.92266 15.4859 2.61445 15.2299C2.88398 15.1311 2.95137 14.7762 2.73574 14.583C2.44375 14.3225 2.27305 13.9496 2.27305 13.5588C2.27305 12.7277 3.01426 12.0809 3.84531 12.2066C4.07891 12.2426 4.28555 12.0629 4.28555 11.8293V5.63008C4.28555 3.22227 6.24414 1.26367 8.65195 1.26367H11.0373C13.4451 1.26367 15.4037 3.22227 15.4037 5.63008V11.8248C15.4037 12.0359 15.5744 12.2066 15.7855 12.2066C15.9967 12.2066 16.1674 12.0359 16.1674 11.8248V5.63008C16.1719 2.8 13.8674 0.5 11.0373 0.5H8.65195C5.82188 0.5 3.52188 2.8 3.52188 5.63008V11.425C1.87324 11.5148 0.956836 13.3746 1.87324 14.7402C1.15449 15.1984 0.696289 16.007 0.696289 16.883C0.696289 17.9746 1.38809 18.9225 2.38086 19.2729C2.19219 19.6682 2.08887 20.1039 2.08887 20.5621V23.1137C2.08887 23.3248 2.25957 23.4955 2.4707 23.4955C2.68184 23.4955 2.85254 23.3248 2.85254 23.1137V20.5621C2.85254 19.6187 3.45 18.7787 4.34395 18.4732C4.34395 18.4732 6.41484 17.759 6.41934 17.759C7.00781 19.2324 8.23867 20.2521 9.78398 20.5217C9.82441 20.5307 9.86934 20.5307 9.91426 20.5217C10.7229 20.3824 11.4461 20.032 12.0391 19.5199Z" fill="#0D60D8"/>
<path id="Vector_13" d="M14.9725 10.5669V8.16361C14.9725 7.9929 14.8602 7.84017 14.6939 7.79525C13.8 7.54368 12.6051 6.11517 12.5287 5.20775C12.5107 4.99661 12.3221 4.83939 12.1154 4.85736C11.9043 4.87532 11.7471 5.0595 11.765 5.27064C11.8684 6.4431 13.1217 7.94798 14.2088 8.42865V10.5624C14.2088 12.9658 12.2547 14.9243 9.84687 14.9243C7.43906 14.9243 5.48496 12.9702 5.48496 10.5624V8.10521C7.45254 8.25794 9.50098 7.73685 10.5926 7.39544C10.7947 7.33255 10.907 7.11693 10.8441 6.91478C10.7812 6.71263 10.5656 6.60032 10.3635 6.66322C9.25391 7.01361 7.09766 7.55716 5.15254 7.30111C4.92344 7.26966 4.7168 7.44935 4.7168 7.68294V10.5624C4.7168 13.99 8.04102 16.4652 11.3293 15.4679C11.4057 15.8992 11.5764 16.3079 11.8324 16.6673C11.9088 16.7706 12.0256 16.829 12.1469 16.829C12.4523 16.829 12.641 16.4786 12.4568 16.2226C12.2367 15.9126 12.102 15.5577 12.0615 15.1804C13.782 14.3628 14.9725 12.6019 14.9725 10.5669ZM20.7225 13.0062C18.984 11.8158 16.5896 12.3728 15.552 14.1876C14.5547 15.9171 15.1477 18.1318 16.8771 19.129C17.6184 19.5558 18.5033 19.722 19.3883 19.5423C19.3613 19.9466 19.2445 20.3419 19.0379 20.7058L17.7531 22.9294C17.6049 23.1855 17.7936 23.5044 18.0855 23.5044C18.2158 23.5044 18.3461 23.437 18.418 23.3113L19.7027 21.0876C20.0891 20.4183 20.2238 19.6726 20.143 18.9988C20.1115 18.7562 19.8689 18.6035 19.6398 18.6798C18.8133 18.9628 17.9643 18.864 17.2635 18.4597C15.9023 17.6736 15.4352 15.9261 16.2213 14.565C16.8277 13.5138 18.0137 12.9927 19.1457 13.1769C18.5977 13.6576 18.5258 14.4706 18.9346 15.0591C19.0559 15.2343 19.2939 15.2747 19.4691 15.1535C19.6443 15.0322 19.6848 14.7941 19.5635 14.6189C19.4062 14.3898 19.3973 14.0933 19.5455 13.8732C19.6982 13.6441 19.9992 13.5452 20.2732 13.6216C21.6209 14.5201 21.9623 16.3798 20.965 17.7095C20.8393 17.8802 20.8707 18.1183 21.0414 18.2441C21.2121 18.3699 21.4502 18.3384 21.576 18.1677C22.8293 16.5056 22.4205 14.1562 20.7225 13.0062Z" fill="#0D60D8"/>
<path id="Vector_14" d="M19.9228 16.4384C19.788 16.4518 19.6533 16.389 19.5769 16.2722C19.4556 16.097 19.2175 16.052 19.0423 16.1733C18.8671 16.2946 18.8222 16.5327 18.9435 16.7079C19.1726 17.0448 19.5679 17.238 19.9857 17.202C20.1968 17.1841 20.3541 16.9999 20.3361 16.7888C20.3181 16.5731 20.1339 16.4204 19.9228 16.4384ZM17.6857 15.1446C17.5958 14.9515 17.3667 14.8706 17.1736 14.9604C16.9804 15.0503 16.8996 15.2794 16.9894 15.4725C17.0523 15.6028 17.1691 15.7915 17.3847 15.9352C17.5779 16.0655 17.816 16.1284 17.9687 16.1284C18.1664 16.1284 18.3371 15.9757 18.3505 15.7735C18.3685 15.5624 18.2068 15.3782 17.9957 15.3602C17.8654 15.3513 17.7441 15.2659 17.6857 15.1446ZM16.8726 21.263C15.7451 20.2927 14.9589 19.0214 14.5816 17.6378C14.5681 17.5345 14.5142 17.4401 14.4199 17.3772C14.2087 17.2335 13.9392 17.3233 13.8449 17.5434C13.782 17.6423 13.9347 17.3817 12.0794 20.5981C11.6167 21.3977 11.4999 22.3321 11.747 23.2261C11.7919 23.3968 11.9492 23.5091 12.1154 23.5091C12.3669 23.5091 12.5511 23.2665 12.4837 23.0239C12.2906 22.3321 12.3849 21.6089 12.7443 20.9845L14.1009 18.6306C14.5726 19.8434 15.3318 20.9575 16.374 21.8515C16.5357 21.9907 16.7783 21.9727 16.913 21.811C17.0523 21.6448 17.0343 21.4022 16.8726 21.263Z" fill="#0D60D8"/>
</g>
</g>
</g>
<defs>
<clipPath id="clip0_2235_1259">
<rect width="23" height="23" fill="white" transform="translate(0 0.5)"/>
</clipPath>
</defs>
</svg>
